<svg id="Layer_1" data-name="Layer 1" xmlns="http://www.w3.org/2000/svg" width="1885.83" height="355.47" viewBox="0 0 1885.83 355.47"><path d="M691.35,44.63,584.7,200.42,477.7,44.63H446.6V311.78h48.78V153.43l81,117.12h16.27l81-117.12V311.78H722.8V44.63Z" fill="#574b60"/><path d="M920.14,115.49V140.4q-26.4-29.62-64-29.62-41.89,0-69.76,28.94-27.5,28.53-27.47,73t27.47,74.1q27.5,29.69,69.76,29.67,38.33,0,64-28.94v24.23H965V115.49ZM905,256.1q-16.25,17.36-41.55,17.37t-41.6-17.37q-15.92-17.69-15.91-42.65c0-16.64,5.3-30.49,15.91-42.28q16.24-17.35,41.6-17.37c16.91,0,30.72,5.81,41.55,17.37s16.27,25.65,16.27,42.28S915.79,244.54,905,256.1Z" fill="#574b60"/><path d="M1098.2,196.45l88.55-81h-60l-75.56,70.12V44.77h-47v267h47V239.1l14.45-13,67.24,85.67h58.56L1098.2,196.46Z" fill="#574b60"/><path d="M1387.43,209.47q0-45.53-27.47-71.95-27.49-26.75-69.8-26.74-45.18,0-73.74,29.3-28.18,28.53-28.2,73.37a113.75,113.75,0,0,0,6.31,38.13,101.42,101.42,0,0,0,19,32.55q12.62,14.67,33.42,23.31t47.54,8.69q48.83,0,85.3-27.11L1361,255.37a110,110,0,0,1-64.68,20.25q-24.61,0-40-12.11c-10.24-8-17-19.06-20.07-33H1386a173.51,173.51,0,0,0,1.46-21ZM1236.3,194.66q4.67-20.64,19-32.55t34.88-11.93c13.72,0,24.91,4,34.19,11.93s14.86,18.79,16.78,32.55Z" fill="#574b60"/><path d="M1589.3,131.76q-22.35-21.33-54.58-21.35-21.33,0-37.58,8.69T1472.91,143V115.49h-46.26V311.78h47V205.86q0-23.12,13.35-37.76t34.38-14.67q19.89,0,31.45,13.76c7.68,9.14,11.57,21.81,11.57,37.94V311.78h47.36V192.1q0-39-22.45-60.34Z" fill="#574b60"/><path d="M1651,44.77V88.29h47.36V44.77Zm0,70.72V311.78h47.36V115.49Z" fill="#574b60"/><path d="M1848.08,204.77q-4.32-2.53-47.36-19.52c-11.34-4.11-17-10.47-17-19.15a16.31,16.31,0,0,1,6.49-13.21c4.34-3.47,10.1-5.21,17.37-5.21q24.89,0,44.07,20.25l24.59-30Q1850.64,109,1809,109q-32.16,0-51.7,16.27c-13,10.88-19.52,24.82-19.52,42q0,33.6,32.91,49.87c5.3,2.65,13.62,6.12,25,10.47,12.75,4.62,20.71,7.86,23.86,9.78,9.87,4.8,14.81,11.11,14.81,18.79,0,5.81-2.74,10.65-8.14,14.63s-12.34,6-20.8,6a62.08,62.08,0,0,1-28.75-7.41,69.84,69.84,0,0,1-24-20.43l-26.79,28.94q28.18,39,79.18,39,34.35,0,55.31-17.74t21-44.43q0-31.81-33.28-49.92Z" fill="#574b60"/><path d="M359.3,10.12v218a4.59,4.59,0,0,1-4.57,4.57H285.28v-53l-38.55,53H150L285.45,46.22,315,5.55h39.73a4.59,4.59,0,0,1,4.57,4.57Z" fill="#dffe02"/><path d="M265.3,5.55l-165,227.1H9.07a4.59,4.59,0,0,1-4.57-4.57v-218A4.56,4.56,0,0,1,9.07,5.55Z" fill="#dffe02"/><polygon points="265.48 5.54 100.45 232.65 100.28 232.65 265.3 5.54 265.48 5.54" fill="#dffe02"/><rect x="5.72" y="271.75" width="353.57" height="78.18" rx="4.57" fill="#dffe02"/></svg>