<svg id="Layer_1" data-name="Layer 1" xmlns="http://www.w3.org/2000/svg" width="1967.12" height="380.58" viewBox="0 0 1967.12 380.58"><path d="M757.44,57.2,650.79,213,543.79,57.2h-31.1V324.35h48.78V166l81,117.12h16.27l81-117.12V324.35h49.19V57.2Z" fill="#574b60"/><path d="M986.23,128.06V153C929,86.44,819,140.46,825,225.29c-5.45,85.25,102.23,141.44,161.23,74.83v24.23h44.85V128.06ZM971.05,268.67c-20.26,23.18-62.91,23.16-83.15,0-21.13-22.43-21.31-62.4,0-84.94C946.66,129.3,1021.79,210.13,971.05,268.67Z" fill="#574b60"/><path d="M1164.29,209l88.55-81h-60l-75.56,70.12V57.34h-47v267h47V251.67l14.45-13L1199,324.34h58.56L1164.27,209Z" fill="#574b60"/><path d="M1453.52,222c1.76-135.88-202.26-127.94-199.22,4-1.25,104,119.53,129.26,191.58,75.56L1427.09,268c-38,28.6-113.47,32.31-124.71-24.91H1452a171.5,171.5,0,0,0,1.46-21Zm-151.13-14.81c10-57.86,97.59-60.37,104.82,0Z" fill="#574b60"/><path d="M1655.39,144.33c-30.45-31.14-95.15-29.08-116.39,11.2V128.06h-46.26V324.35h47V218.43c-.54-28.83,18.7-52.76,47.72-52.43,29.13.07,43.23,22.75,43,51.7V324.35h47.36c-4.42-41.33,14.74-151.33-22.45-180Z" fill="#574b60"/><path d="M1717.05,57.34v43.52h47.36V57.34Zm0,70.72V324.35h47.36V128.06Z" fill="#574b60"/><path d="M1914.17,217.34q-4.32-2.53-47.36-19.52c-17-5.27-22.83-21.61-10.47-32.37,19.38-12.35,45.56-2,61.44,15l24.59-30c-35.09-45.36-138.3-38.61-138.47,29.3-1.94,45.86,49.44,55.3,81.74,70.12,16.26,7.21,20.21,23.31,6.67,33.42-23.46,15.24-58-.39-73.55-21.85L1792,290.38c26.31,41.66,97.41,52.35,134.49,21.3,31.79-26.3,27.45-75.14-12.3-94.35Z" fill="#574b60"/><path d="M374.39,22.69v218a4.58,4.58,0,0,1-4.57,4.57H300.37V192.18l-38.55,53H165.08l165-227.11h39.73a4.58,4.58,0,0,1,4.57,4.57Z" fill="#dffe02"/><path d="M280.39,18.12l-165,227.1H24.19a4.58,4.58,0,0,1-4.57-4.57v-218a4.56,4.56,0,0,1,4.55-4.57h0Z" fill="#dffe02"/><rect x="20.81" y="284.32" width="353.57" height="78.18" rx="4.57" fill="#dffe02"/></svg>